<svg width="764pt" height="116pt"
 viewBox="0.00 0.00 764.00 116.00" xmlns="http://www.w3.org/2000/svg" xmlns:xlink="http://www.w3.org/1999/xlink">
<g id="graph0" class="graph" transform="scale(1 1) rotate(0) translate(4 112)">
<title>G</title>
<polygon fill="white" stroke="transparent" points="-4,4 -4,-112 760,-112 760,4 -4,4"/>
<!-- comgoogleguavaguava -->
<g id="node1" class="node">
<title>comgoogleguavaguava</title>
<polygon fill="none" stroke="black" points="347.5,-108 292.5,-108 292.5,-72 347.5,-72 347.5,-108"/>
<text text-anchor="middle" x="320" y="-86.3" font-family="Times New Roman" font-size="14.00">guava</text>
</g>
<!-- comgoogleguavafailureaccess -->
<g id="node2" class="node">
<title>comgoogleguavafailureaccess</title>
<polygon fill="none" stroke="black" points="96,-36 0,-36 0,0 96,0 96,-36"/>
<text text-anchor="middle" x="48" y="-14.3" font-family="Times New Roman" font-size="14.00">failureaccess</text>
</g>
<!-- comgoogleguavaguava&#45;&gt;comgoogleguavafailureaccess -->
<g id="edge1" class="edge">
<title>comgoogleguavaguava&#45;&gt;comgoogleguavafailureaccess</title>
<path fill="none" stroke="black" d="M292.4,-82.65C253.14,-73.51 178.71,-55.83 105.94,-36.2"/>
<polygon fill="black" stroke="black" points="106.72,-32.78 96.16,-33.54 104.89,-39.54 106.72,-32.78"/>
</g>
<!-- comgoogleguavalistenablefuture -->
<g id="node3" class="node">
<title>comgoogleguavalistenablefuture</title>
<polygon fill="none" stroke="black" points="227.5,-36 114.5,-36 114.5,0 227.5,0 227.5,-36"/>
<text text-anchor="middle" x="171" y="-14.3" font-family="Times New Roman" font-size="14.00">listenablefuture</text>
</g>
<!-- comgoogleguavaguava&#45;&gt;comgoogleguavalistenablefuture -->
<g id="edge2" class="edge">
<title>comgoogleguavaguava&#45;&gt;comgoogleguavalistenablefuture</title>
<path fill="none" stroke="black" d="M292.32,-76C271.06,-66.01 241.22,-51.99 216.47,-40.36"/>
<polygon fill="black" stroke="black" points="217.79,-37.12 207.25,-36.03 214.82,-43.45 217.79,-37.12"/>
</g>
<!-- comgooglecodefindbugsjsr305 -->
<g id="node4" class="node">
<title>comgooglecodefindbugsjsr305</title>
<polygon fill="none" stroke="black" points="300,-36 246,-36 246,0 300,0 300,-36"/>
<text text-anchor="middle" x="273" y="-14.3" font-family="Times New Roman" font-size="14.00">jsr305</text>
</g>
<!-- comgoogleguavaguava&#45;&gt;comgooglecodefindbugsjsr305 -->
<g id="edge3" class="edge">
<title>comgoogleguavaguava&#45;&gt;comgooglecodefindbugsjsr305</title>
<path fill="none" stroke="black" d="M308.38,-71.7C302.86,-63.47 296.15,-53.48 290.07,-44.42"/>
<polygon fill="black" stroke="black" points="292.96,-42.46 284.48,-36.1 287.15,-46.36 292.96,-42.46"/>
</g>
<!-- orgcheckerframeworkcheckerqual -->
<g id="node5" class="node">
<title>orgcheckerframeworkcheckerqual</title>
<polygon fill="none" stroke="black" points="416,-36 318,-36 318,0 416,0 416,-36"/>
<text text-anchor="middle" x="367" y="-14.3" font-family="Times New Roman" font-size="14.00">checker&#45;qual</text>
</g>
<!-- comgoogleguavaguava&#45;&gt;orgcheckerframeworkcheckerqual -->
<g id="edge4" class="edge">
<title>comgoogleguavaguava&#45;&gt;orgcheckerframeworkcheckerqual</title>
<path fill="none" stroke="black" d="M331.62,-71.7C337.14,-63.47 343.85,-53.48 349.93,-44.42"/>
<polygon fill="black" stroke="black" points="352.85,-46.36 355.52,-36.1 347.04,-42.46 352.85,-46.36"/>
</g>
<!-- comgoogleerrorproneerror_prone_annotations -->
<g id="node6" class="node">
<title>comgoogleerrorproneerror_prone_annotations</title>
<polygon fill="none" stroke="black" points="606,-36 434,-36 434,0 606,0 606,-36"/>
<text text-anchor="middle" x="520" y="-14.3" font-family="Times New Roman" font-size="14.00">error_prone_annotations</text>
</g>
<!-- comgoogleguavaguava&#45;&gt;comgoogleerrorproneerror_prone_annotations -->
<g id="edge5" class="edge">
<title>comgoogleguavaguava&#45;&gt;comgoogleerrorproneerror_prone_annotations</title>
<path fill="none" stroke="black" d="M347.81,-79.27C377.07,-69.02 423.99,-52.6 461.47,-39.48"/>
<polygon fill="black" stroke="black" points="462.99,-42.66 471.27,-36.05 460.68,-36.05 462.99,-42.66"/>
</g>
<!-- comgooglej2objcj2objcannotations -->
<g id="node7" class="node">
<title>comgooglej2objcj2objcannotations</title>
<polygon fill="none" stroke="black" points="756,-36 624,-36 624,0 756,0 756,-36"/>
<text text-anchor="middle" x="690" y="-14.3" font-family="Times New Roman" font-size="14.00">j2objc&#45;annotations</text>
</g>
<!-- comgoogleguavaguava&#45;&gt;comgooglej2objcj2objcannotations -->
<g id="edge6" class="edge">
<title>comgoogleguavaguava&#45;&gt;comgooglej2objcj2objcannotations</title>
<path fill="none" stroke="black" d="M347.74,-84.45C398.47,-76.02 509.84,-57.11 613.75,-36.21"/>
<polygon fill="black" stroke="black" points="614.67,-39.59 623.78,-34.18 613.29,-32.73 614.67,-39.59"/>
</g>
</g>
</svg>
